<?xml version="1.0" encoding="UTF-8"?>
<svg version="1.1" xmlns="http://www.w3.org/2000/svg" width="1287" height="1287">
<path d="M0 0 C424.71 0 849.42 0 1287 0 C1287 424.71 1287 849.42 1287 1287 C862.29 1287 437.58 1287 0 1287 C0 862.29 0 437.58 0 0 Z " fill="#FEFEFE" transform="translate(0,0)"/>
<path d="M0 0 C0.76007355 0.00171204 1.52014709 0.00342407 2.30325317 0.00518799 C20.89711204 0.07567103 39.32618518 1.9419656 57.79931641 3.90332031 C63.19161658 4.47194072 68.58942775 4.97473123 73.98828125 5.4765625 C81.24362752 6.15602797 88.46645957 6.95314657 95.6875 7.9375 C103.07667839 8.92288619 110.42426567 9.64074805 117.86450195 10.10449219 C132.45084574 11.0350474 145.49100076 13.05250084 155.765625 24.46875 C161.30476038 31.30837804 165.58425271 38.86675933 169.6875 46.625 C177.56133896 62.25924478 177.56133896 62.25924478 190.9375 72.4375 C191.87722656 72.79328125 191.87722656 72.79328125 192.8359375 73.15625 C198.02636986 74.66764027 203.44239642 74.69694723 208.8125 74.8125 C209.93773071 74.85177612 209.93773071 74.85177612 211.08569336 74.8918457 C215.28871892 74.97596562 215.28871892 74.97596562 218.65014648 72.74755859 C220.210893 69.94691691 220.28367569 68.20804143 220.23046875 65.015625 C220.22080078 63.99082031 220.21113281 62.96601563 220.20117188 61.91015625 C220.1634668 60.31494141 220.1634668 60.31494141 220.125 58.6875 C220.10469727 57.06908203 220.10469727 57.06908203 220.08398438 55.41796875 C220.04866584 52.7573058 219.99934199 50.09765704 219.9375 47.4375 C220.5975 47.4375 221.2575 47.4375 221.9375 47.4375 C223.43712388 51.70142004 224.90833627 55.97464184 226.375 60.25 C226.79587891 61.44560547 227.21675781 62.64121094 227.65039062 63.87304688 C233.4962211 81.03640514 233.4962211 81.03640514 230.875 88.4375 C227.69024135 91.7249928 224.34448602 93.27454894 219.80078125 93.80078125 C200.00410486 93.51766047 180.30286699 91.50793434 160.61547852 89.54370117 C152.02127046 88.69933739 143.42931391 88.00372552 134.8125 87.4375 C123.65973521 86.70373508 112.51589201 85.89467667 101.375 85 C100.5857312 84.93668488 99.7964624 84.87336975 98.98327637 84.80813599 C87.71007537 83.89661749 76.47546976 82.77494054 65.23730469 81.49682617 C54.89307302 80.35562872 44.5362034 79.68136268 34.14892578 79.08374023 C32.91770996 79.01227783 31.68649414 78.94081543 30.41796875 78.8671875 C29.33410889 78.80772949 28.25024902 78.74827148 27.13354492 78.68701172 C24.86872199 78.51019948 22.60996696 78.24580666 20.36157227 77.92114258 C11.3428462 76.64726762 2.02177205 77.22208605 -7.0625 77.4375 C-7.87799316 77.45586914 -8.69348633 77.47423828 -9.53369141 77.49316406 C-20.84130377 77.88333719 -31.43776242 80.68659169 -42.25 83.8125 C-42.92580109 84.00713837 -43.60160217 84.20177673 -44.29788208 84.40231323 C-57.52908967 87.53525662 -57.52908967 87.53525662 -67.5234375 95.79296875 C-68.18541942 97.05806068 -68.82342993 98.33597107 -69.4375 99.625 C-69.76621094 100.24697266 -70.09492187 100.86894531 -70.43359375 101.50976562 C-74.26332482 109.08395035 -75.39404332 116.65251731 -75.25 125.0625 C-75.24282959 125.88427734 -75.23565918 126.70605469 -75.22827148 127.55273438 C-75.12515569 136.0158681 -74.87480235 144.47757597 -74.625 152.9375 C-74.60553314 153.62724915 -74.58606628 154.31699829 -74.56600952 155.02764893 C-74.50857803 157.00816525 -74.44387227 158.98846651 -74.37890625 160.96875 C-74.34224854 162.11923828 -74.30559082 163.26972656 -74.26782227 164.45507812 C-74.09563004 166.95626745 -73.91842718 169.08689402 -73.0625 171.4375 C-70.96015372 172.6331805 -70.96015372 172.6331805 -68.0625 173.4375 C-66.85851562 173.85515625 -65.65453125 174.2728125 -64.4140625 174.703125 C-60.07226299 176.15609286 -55.68291321 177.4088613 -51.2734375 178.63671875 C-49.0757971 179.25600539 -46.87846787 179.87638792 -44.68115234 180.49682617 C-43.19765935 180.91217193 -41.71263785 181.32210041 -40.22607422 181.72631836 C-17.18943726 188.01113038 0.79192328 199.40112556 13.625 220.125 C26.43385557 243.1038497 30.80983581 271.48076706 31.9375 297.4375 C28.20874612 297.58310195 24.48072566 297.67167043 20.75 297.75 C19.69490234 297.79189453 18.63980469 297.83378906 17.55273438 297.87695312 C9.7343359 298.00027171 9.7343359 298.00027171 5.87890625 295.27734375 C3.96128123 292.47228662 2.4487331 289.78806872 1.0625 286.6875 C-4.64510697 274.83659086 -13.56652588 264.327229 -26.0625 259.4375 C-26.77535156 259.13972656 -27.48820312 258.84195312 -28.22265625 258.53515625 C-39.38677918 254.49072441 -51.31281332 255.16479009 -62.08984375 259.87890625 C-66.754849 262.3248157 -70.91960438 265.19754317 -75.0625 268.4375 C-76.073125 269.159375 -77.08375 269.88125 -78.125 270.625 C-91.71157236 282.4893308 -100.10479736 301.81817624 -102.0625 319.4375 C-104.7025 320.0975 -107.3425 320.7575 -110.0625 321.4375 C-110.02428857 329.74004233 -109.96470537 338.04205078 -109.87859726 346.34422112 C-109.83925926 350.20019998 -109.80700449 354.05595517 -109.79150391 357.91210938 C-109.77624613 361.64066904 -109.7416424 365.36861318 -109.69419098 369.09689713 C-109.67947031 370.51203149 -109.67146439 371.92725378 -109.67061615 373.34246445 C-109.66033867 381.89958325 -108.97717313 388.76804389 -105.0625 396.4375 C-104.50046875 397.6028125 -103.9384375 398.768125 -103.359375 399.96875 C-102.84890625 400.9484375 -102.3384375 401.928125 -101.8125 402.9375 C-99.0625 408.21967822 -99.0625 408.21967822 -99.0625 410.4375 C-110.36993746 411.77339978 -121.69623899 411.53611278 -133.0625 411.4375 C-133.18149658 412.01105225 -133.30049316 412.58460449 -133.4230957 413.17553711 C-135.92617208 424.88614164 -139.16734125 435.84509589 -149.3125 443.03125 C-157.37059626 447.68015169 -165.51268229 447.54488959 -174.375 445.3125 C-180.72102214 443.12246026 -185.1579157 439.61815181 -188.25 433.625 C-188.87415483 432.23798926 -189.47750922 430.84147787 -190.0625 429.4375 C-190.7455921 427.83145139 -191.43310762 426.22727709 -192.125 424.625 C-192.42535156 423.89667969 -192.72570312 423.16835938 -193.03515625 422.41796875 C-194.81737461 418.98228545 -196.38331276 417.66389575 -200.0625 416.4375 C-202.6014383 416.31794119 -205.11507824 416.25226036 -207.6550293 416.23217773 C-208.42599945 416.22227814 -209.1969696 416.21237854 -209.99130249 416.20217896 C-212.53974333 416.17059044 -215.08820282 416.145817 -217.63671875 416.12109375 C-219.4036355 416.10052194 -221.17054736 416.0795254 -222.93745422 416.05812073 C-227.58822667 416.00292355 -232.23904336 415.95350388 -236.88989258 415.90527344 C-241.63561949 415.85504124 -246.38128214 415.79936414 -251.12695312 415.74414062 C-260.43874719 415.63658784 -269.75059705 415.53513644 -279.0625 415.4375 C-279.21178955 416.37609863 -279.3610791 417.31469727 -279.51489258 418.28173828 C-281.13427706 427.61395578 -285.71288675 435.20235025 -292.4375 441.75 C-300.94026058 447.21606037 -310.18672186 447.71943972 -320.0625 446.4375 C-325.92059449 444.66205994 -329.33339317 440.53842228 -332.484375 435.45703125 C-335.03297671 430.58062254 -337.21962575 425.54261322 -339.34765625 420.4699707 C-339.67121094 419.70644287 -339.99476563 418.94291504 -340.328125 418.15625 C-340.61461914 417.46466797 -340.90111328 416.77308594 -341.19628906 416.06054688 C-341.96371969 414.24584107 -341.96371969 414.24584107 -344.0625 413.4375 C-344.145 414.71625 -344.2275 415.995 -344.3125 417.3125 C-345.28985857 426.05366471 -348.98506512 434.23650649 -355.125 440.5625 C-363.22736632 445.73422318 -371.78375104 447.89065487 -381.25390625 446 C-386.7376647 444.3351018 -390.22535004 441.39445235 -393.0625 436.4375 C-395.0660702 431.52533784 -396.6192823 426.53845953 -398.0625 421.4375 C-398.37316406 420.36371094 -398.68382812 419.28992188 -399.00390625 418.18359375 C-402.5500383 405.04406097 -402.18150301 391.93773008 -402.0625 378.4375 C-406.6825 378.4375 -411.3025 378.4375 -416.0625 378.4375 C-416.0625 374.1475 -416.0625 369.8575 -416.0625 365.4375 C-407.81531777 362.98089253 -399.58393262 361.29378379 -391.0625 360.125 C-358.67107787 355.42350609 -326.57341582 347.50105512 -294.6550293 340.32446289 C-289.11745301 339.08753522 -283.58463067 337.94031294 -278 336.9375 C-271.04698205 335.68876458 -264.18998834 334.11103215 -257.3125 332.5 C-246.26619 329.91754121 -235.20244886 327.57523006 -224.0625 325.4375 C-220.04697499 324.66610891 -216.03150202 323.89446233 -212.01635742 323.12109375 C-209.26842925 322.59181666 -206.51984664 322.0661501 -203.77075195 321.54296875 C-197.47920559 320.33614121 -191.26443221 319.03777708 -185.0625 317.4375 C-175.38293392 315.39913493 -165.65383425 313.9145112 -155.85839844 312.56494141 C-150.41580622 311.80488608 -145.01894692 310.92496677 -139.625 309.875 C-121.50196861 306.37918684 -121.50196861 306.37918684 -112.84521484 306.41674805 C-111.94846039 306.41974411 -111.05170593 306.42274017 -110.1277771 306.42582703 C-109.44623566 306.42967911 -108.76469421 306.43353119 -108.0625 306.4375 C-108.06526538 304.72080392 -108.06526538 304.72080392 -108.06808662 302.96942711 C-108.11154529 275.70887406 -108.14445218 248.44832483 -108.16463066 221.18774416 C-108.16713162 217.82128902 -108.16972031 214.45483394 -108.17236328 211.08837891 C-108.17315021 210.08321674 -108.17315021 210.08321674 -108.17395304 209.05774827 C-108.18261958 198.25410049 -108.19836851 187.45047433 -108.21680559 176.64683931 C-108.2356097 165.53419221 -108.24648938 154.42155693 -108.25067699 143.30889475 C-108.25326957 137.0785216 -108.25930284 130.84819723 -108.27396011 124.61783981 C-108.28768328 118.73607371 -108.29169334 112.85437581 -108.28871536 106.97259521 C-108.28925901 104.83068087 -108.29314767 102.6887639 -108.30091095 100.54686356 C-108.33785294 89.81475698 -108.11470157 79.18045052 -107.17330933 68.48477173 C-107.09571825 67.59188269 -107.01812718 66.69899365 -106.93818486 65.77904737 C-106.42094608 60.49034559 -105.46574772 55.56279906 -104.0625 50.4375 C-103.80146484 49.27154297 -103.80146484 49.27154297 -103.53515625 48.08203125 C-101.61777672 39.51773603 -97.13592849 34.38705309 -90.0625 29.4375 C-85.17439195 26.75893608 -79.98617517 24.69820515 -74.83642578 22.58398438 C-71.79474629 21.32683538 -68.77010264 20.03343711 -65.74609375 18.734375 C-55.93810512 14.52930181 -46.1064478 10.37494945 -36.1875 6.4375 C-35.20136719 6.03809204 -35.20136719 6.03809204 -34.1953125 5.63061523 C-22.88356193 1.21908953 -12.06958414 -0.09684357 0 0 Z " fill="#069669" transform="translate(742.0625,314.5625)"/>
<path d="M0 0 C5.6881974 4.54862645 9.06158626 9.9904505 12.7265625 16.21875 C17.31998993 23.92036387 22.09399402 28.03401172 30.55078125 31.27734375 C34.39359185 32.21401375 37.98780819 32.41065659 41.93782043 32.42883301 C43.8774831 32.44134519 43.8774831 32.44134519 45.85633087 32.45411015 C47.28548661 32.45842124 48.71464261 32.4626472 50.14379883 32.46679688 C51.65844194 32.47476824 53.1730828 32.48317706 54.68772125 32.49198818 C57.96240892 32.51010501 61.23709138 32.5251453 64.51180458 32.53782463 C69.76377248 32.55818838 75.01569226 32.5853614 80.2676239 32.61341858 C87.75311146 32.65275405 95.23860811 32.6890341 102.72412109 32.72317505 C121.02326963 32.80690913 139.32233317 32.90699365 157.62139463 33.0077641 C160.47982053 33.02345538 163.33824733 33.03897118 166.19667435 33.05445671 C196.81597941 33.22096168 227.43326308 33.46079108 258.05078125 33.83984375 C259.41399694 33.85659653 259.41399694 33.85659653 260.80475235 33.87368774 C271.0535462 33.99990997 281.30223188 34.13251868 291.55078125 34.27734375 C291.64394551 42.56225568 291.71477918 50.84694445 291.75802994 59.13225269 C291.77880055 62.9805295 291.80692197 66.82844483 291.85253906 70.67651367 C291.89637748 74.39833252 291.91999725 78.11980629 291.93029022 81.84186363 C291.93761419 83.2534903 291.95191392 84.66510062 291.97370148 86.07657814 C292.14284774 97.50112476 290.69449932 107.40046856 283.3203125 116.4921875 C274.53653921 125.3535217 265.34424628 126.6002502 253.42578125 126.66796875 C246.22979779 126.85460809 241.01982212 128.38217767 235.44921875 133.03125 C232.33671673 136.72634855 229.8906678 140.35035256 227.67578125 144.65234375 C221.41600707 156.59228339 212.34835592 163.92737463 199.86328125 168.65234375 C184.644819 172.94380585 166.78538296 171.77512757 152.61328125 164.83984375 C140.51818068 157.85156342 133.8284335 147.93680368 127.94897461 135.65136719 C127.56233643 134.85633789 127.17569824 134.06130859 126.77734375 133.2421875 C126.44299316 132.52667725 126.10864258 131.81116699 125.76416016 131.07397461 C124.21462554 128.77960333 123.13665894 128.27920503 120.55078125 127.27734375 C117.39755079 126.94972016 117.39755079 126.94972016 113.85449219 126.95849609 C112.85875183 126.94342766 112.85875183 126.94342766 111.84289551 126.92805481 C109.65699092 126.89725742 107.47120862 126.88019765 105.28515625 126.86328125 C103.76628571 126.84456679 102.24742553 126.82499316 100.72857666 126.80459595 C96.73708206 126.75329796 92.74555376 126.71365987 88.75390625 126.67645264 C84.67830078 126.63639829 80.60283521 126.58531249 76.52734375 126.53515625 C68.53525187 126.43842461 60.54309067 126.35401111 52.55078125 126.27734375 C52.34958176 126.89045914 52.14838226 127.50357452 51.94108582 128.13526917 C51.67459732 128.94213669 51.40810883 129.74900421 51.13354492 130.58032227 C50.87047043 131.37906265 50.60739594 132.17780304 50.33634949 133.00074768 C45.63713071 146.61919924 37.2325338 158.55859967 24.14453125 164.9375 C9.27007154 171.65550367 -6.85054219 172.38167259 -22.44921875 167.27734375 C-28.32002763 164.54234845 -33.16130646 161.16079942 -37.44921875 156.27734375 C-38.37734375 155.34921875 -39.30546875 154.42109375 -40.26171875 153.46484375 C-46.9662609 145.57919055 -50.97282474 134.91007639 -54.44921875 125.27734375 C-55.48046875 125.95796875 -56.51171875 126.63859375 -57.57421875 127.33984375 C-60.18788392 128.8018134 -61.44320522 129.27697557 -64.51171875 129.46484375 C-70.31491183 127.11887208 -73.27282068 122.29464773 -75.76171875 116.71484375 C-78.73798296 107.58845681 -78.31350673 97.77577122 -78.44921875 88.27734375 C-78.475 87.10059082 -78.50078125 85.92383789 -78.52734375 84.71142578 C-79.10608878 57.21741978 -77.11628002 29.75910462 -58.7890625 7.703125 C-42.40104027 -9.28679454 -19.70753064 -13.86127753 0 0 Z " fill="#069669" transform="translate(721.44921875,592.72265625)"/>
<path d="M0 0 C1.0711203 -0.01205475 1.0711203 -0.01205475 2.16387939 -0.02435303 C18.41662557 -0.16282704 36.81803949 0.88590831 49.1875 12.58203125 C62.09411879 26.29531372 59.19380455 49.72922239 59.13574219 67.11108398 C59.1250128 70.93294097 59.1356923 74.75432904 59.1484375 78.57617188 C59.17263287 117.43283014 59.17263287 117.43283014 49.93359375 128.75390625 C44.66252999 133.87409878 38.96023257 136.60806546 31.875 138.375 C31.203479 138.55087646 30.53195801 138.72675293 29.84008789 138.90795898 C20.67835144 140.95838642 11.35263949 140.71163898 2.01538086 140.69067383 C-0.92046425 140.68751831 -3.85529478 140.71101807 -6.79101562 140.73632812 C-22.62421009 140.78950208 -38.26846642 140.15428549 -50.58984375 129.01171875 C-56.52938359 122.67923226 -58.37236719 114.53838193 -59.234375 106.13671875 C-59.36051178 104.91187019 -59.36051178 104.91187019 -59.48919678 103.66227722 C-60.44521036 93.32659482 -60.42448918 82.9752867 -60.38574219 72.60375977 C-60.37498153 69.18162461 -60.38572405 65.7600104 -60.3984375 62.33789062 C-60.42470638 22.81627296 -60.42470638 22.81627296 -49.26953125 11.19140625 C-35.54249068 -0.4353221 -16.97787962 0.10674424 0 0 Z " fill="#202A38" transform="translate(944.125,841.625)"/>
<path d="M0 0 C1.0711203 -0.01205475 1.0711203 -0.01205475 2.16387939 -0.02435303 C18.41662557 -0.16282704 36.81803949 0.88590831 49.1875 12.58203125 C62.09411879 26.29531372 59.19380455 49.72922239 59.13574219 67.11108398 C59.1250128 70.93294097 59.1356923 74.75432904 59.1484375 78.57617188 C59.17263287 117.43283014 59.17263287 117.43283014 49.93359375 128.75390625 C44.66252999 133.87409878 38.96023257 136.60806546 31.875 138.375 C31.203479 138.55087646 30.53195801 138.72675293 29.84008789 138.90795898 C20.67835144 140.95838642 11.35263949 140.71163898 2.01538086 140.69067383 C-0.92046425 140.68751831 -3.85529478 140.71101807 -6.79101562 140.73632812 C-22.62421009 140.78950208 -38.26846642 140.15428549 -50.58984375 129.01171875 C-56.52938359 122.67923226 -58.37236719 114.53838193 -59.234375 106.13671875 C-59.36051178 104.91187019 -59.36051178 104.91187019 -59.48919678 103.66227722 C-60.44521036 93.32659482 -60.42448918 82.9752867 -60.38574219 72.60375977 C-60.37498153 69.18162461 -60.38572405 65.7600104 -60.3984375 62.33789062 C-60.42470638 22.81627296 -60.42470638 22.81627296 -49.26953125 11.19140625 C-35.54249068 -0.4353221 -16.97787962 0.10674424 0 0 Z " fill="#202A38" transform="translate(188.125,841.625)"/>
<path d="M0 0 C10.31498466 0.36395385 20.61097819 0.75263752 30.875 1.875 C40.29836788 2.88985355 49.73639791 3.61799461 59.1875 4.3125 C62.6666765 4.56887707 66.14584108 4.82541571 69.625 5.08203125 C70.56825638 5.15153992 71.51151276 5.22104858 72.48335266 5.29266357 C85.84020802 6.27977843 99.19391192 7.30853445 112.54774857 8.3355217 C114.68659227 8.49993022 116.82545586 8.66407769 118.96432495 8.82815552 C145.68558048 10.87856597 145.68558048 10.87856597 158.66015625 11.953125 C159.50273987 12.02280991 160.34532349 12.09249481 161.21343994 12.16429138 C164.29509528 12.41978783 167.37669002 12.67582189 170.45782471 12.93753052 C177.21473159 13.51111393 183.95881951 14.03833109 190.73828125 14.26171875 C191.74020508 14.29491211 192.74212891 14.32810547 193.77441406 14.36230469 C195.54026982 14.40993022 197.30675513 14.44010533 199.07324219 14.44628906 C202.41920481 14.52057905 204.6051102 14.74075453 207.43359375 16.59765625 C209.47235068 19.7244281 209.92546136 22.31085716 210.5 26 C210.73899281 27.45213567 210.97996765 28.90394617 211.22265625 30.35546875 C211.34656738 31.11778809 211.47047852 31.88010742 211.59814453 32.66552734 C212.13121899 35.76228189 212.78114107 38.82925179 213.43066406 41.90332031 C216.22253171 55.17410546 218.11341334 68.57551037 220 82 C210.6887525 82.12330186 201.47569862 81.76241391 192.1875 81.125 C190.81137134 81.03369327 189.43523181 80.94255028 188.05908203 80.8515625 C180.15626399 80.32197791 172.26466273 79.6991455 164.375 79 C154.04363926 78.09182528 143.70309407 77.53361197 133.34686279 77.00976562 C117.55050807 76.20331906 101.77733227 75.11342373 86 74 C67.70194527 72.70872864 49.40800601 71.49112701 31.0859375 70.59570312 C24.03294841 70.24768287 17.0168101 69.81243981 10 69 C7.50673893 53.76186552 5.03634958 38.52078382 2.75 23.25 C2.58725586 22.17645264 2.42451172 21.10290527 2.25683594 19.99682617 C1.27180515 13.34473132 0.53348978 6.70341509 0 0 Z " fill="#07966A" transform="translate(735,399)"/>
<path d="M0 0 C18.748125 -0.061875 18.748125 -0.061875 37.875 -0.125 C41.80390137 -0.14320801 45.73280273 -0.16141602 49.78076172 -0.18017578 C54.62329102 -0.18920898 54.62329102 -0.18920898 56.8989563 -0.19088745 C58.46936175 -0.19393433 60.03976288 -0.20091739 61.61013794 -0.21115112 C70.24812909 -0.26456959 78.59797842 -0.3006333 87 2 C87.70575165 2.18118378 88.4115033 2.36236755 89.13864136 2.54904175 C96.70592394 4.63648669 103.02845631 10.73463076 107 17.3125 C111.84217374 35.16801567 112.77512162 56.82172583 104.609375 73.91015625 C101.78386068 78.4830281 98.76137406 81.51109992 94 84 C93.34 84 92.68 84 92 84 C92.42821045 85.05276123 92.8564209 86.10552246 93.29760742 87.19018555 C94.91098036 91.15762213 96.52273109 95.12571614 98.1340332 99.09399414 C98.82696149 100.79989848 99.52030908 102.50563256 100.21411133 104.21118164 C102.48841493 109.8025201 104.75259609 115.39779143 107 121 C107.27362366 121.68128967 107.54724731 122.36257935 107.8291626 123.06451416 C108.55518441 124.88034075 109.27206613 126.6998143 109.98828125 128.51953125 C110.57863159 130.01577026 110.57863159 130.01577026 111.1809082 131.54223633 C112 134 112 134 112 137 C100.12 137 88.24 137 76 137 C73.73613251 130.96897534 71.47461098 124.93717662 69.21899414 118.90307617 C68.45115611 116.85113157 67.68196133 114.79969412 66.91137695 112.7487793 C65.80321847 109.79869137 64.69997152 106.84680669 63.59765625 103.89453125 C63.25283707 102.97976517 62.90801788 102.06499908 62.55274963 101.12251282 C62.23249313 100.26199814 61.91223663 99.40148346 61.58227539 98.51489258 C61.30025772 97.76210526 61.01824005 97.00931793 60.72767639 96.23371887 C60 94 60 94 59 89 C50.75 89 42.5 89 34 89 C34 104.84 34 120.68 34 137 C22.78 137 11.56 137 0 137 C0 91.79 0 46.58 0 0 Z " fill="#202A38" transform="translate(1029,844)"/>
<path d="M0 0 C0.8188266 0.00215515 1.6376532 0.0043103 2.48129272 0.00653076 C26.88959187 0.10866865 50.18461463 2.76473369 73.75 9.3125 C74.83490723 9.60785645 75.91981445 9.90321289 77.03759766 10.20751953 C94.03253025 14.87216503 110.43204127 20.67244365 126.75 27.3125 C128.10424072 27.86236572 128.10424072 27.86236572 129.48583984 28.42333984 C140.73413146 33.01729407 151.87934847 37.87717423 162.75 43.3125 C162.42 44.6325 162.09 45.9525 161.75 47.3125 C154.0407447 47.57922647 146.57138168 46.65682869 138.9420166 45.6595459 C126.90247798 44.09669216 114.90263772 42.54597073 102.75 42.3125 C101.6779834 42.28671875 100.6059668 42.2609375 99.50146484 42.234375 C76.81910779 41.67459149 76.81910779 41.67459149 54.75 46.3125 C45.38899648 46.50810306 36.74067987 44.47763888 27.74316406 42.18994141 C20.53056925 40.39398698 13.4141696 39.3697714 6.0234375 38.671875 C2.75 38.3125 2.75 38.3125 -0.25 37.3125 C-3.1695575 37.20280458 -6.06440892 37.14842609 -8.984375 37.14453125 C-9.8545929 37.14120285 -10.72481079 37.13787445 -11.62139893 37.13444519 C-13.47073845 37.12937752 -15.32008713 37.12703682 -17.16943359 37.12719727 C-19.94775409 37.12504056 -22.72565762 37.10696724 -25.50390625 37.08789062 C-74.58982941 36.92814696 -119.04003002 57.23763425 -157.18359375 87.16796875 C-161.23584347 90.33552437 -165.406917 93.30845494 -169.625 96.25 C-176.52885611 101.07089236 -183.32568015 106.02090767 -190.09326172 111.03100586 C-195.45240306 114.99563786 -200.83889167 118.91913434 -206.25 122.8125 C-212.44663203 127.27258272 -218.60984076 131.77499244 -224.75 136.3125 C-230.89016269 140.85001011 -237.05354661 145.35216576 -243.25 149.8125 C-252.63780773 156.57233749 -261.94696495 163.43667344 -271.25 170.3125 C-282.89494355 178.91921938 -294.57974622 187.46492645 -306.33007812 195.92724609 C-308.89290617 197.77636694 -311.44692213 199.63744758 -314 201.5 C-315.74956145 202.77143702 -317.49958308 204.04224099 -319.25 205.3125 C-319.77480957 205.69470703 -320.29961914 206.07691406 -320.84033203 206.47070312 C-327.42054701 211.25562465 -334.05670225 215.93398725 -340.875 220.375 C-341.45483643 220.75712646 -342.03467285 221.13925293 -342.63208008 221.53295898 C-345.44741143 223.3419556 -347.9180125 224.78425808 -351.25 225.3125 C-344.09567536 217.91969787 -336.28114004 211.28746387 -328.29296875 204.8203125 C-324.76909397 201.91616923 -321.3185202 198.93605864 -317.875 195.9375 C-308.38753393 187.6793788 -298.8025914 179.55867795 -289.05078125 171.61328125 C-281.91756787 165.75350066 -274.90938216 159.74342676 -267.91113281 153.72363281 C-262.34307481 148.93492027 -256.72896785 144.21979695 -251.02734375 139.58984375 C-247.90603633 137.03045946 -244.8254997 134.42656209 -241.75 131.8125 C-236.90045949 127.69142208 -231.99839036 123.64258517 -227.0625 119.625 C-223.93200334 117.05103608 -220.83827539 114.43680914 -217.75 111.8125 C-212.89683401 107.68844815 -207.99187035 103.63584463 -203.05078125 99.6171875 C-199.98224109 97.0921684 -196.95963516 94.51761449 -193.9375 91.9375 C-189.47926493 88.13650512 -184.94090565 84.46648276 -180.3125 80.875 C-175.50841354 77.14655469 -170.84244355 73.2985639 -166.25 69.3125 C-159.43179503 63.40319828 -152.40112533 57.81190523 -145.25 52.3125 C-144.24195313 51.53003906 -143.23390625 50.74757813 -142.1953125 49.94140625 C-134.80873306 44.28881164 -127.16354763 39.18192399 -119.25 34.3125 C-118.56083496 33.88179199 -117.87166992 33.45108398 -117.16162109 33.00732422 C-95.20579608 19.36787618 -71.2166457 10.46500262 -46.125 4.5625 C-45.29145996 4.36358154 -44.45791992 4.16466309 -43.59912109 3.9597168 C-29.18448075 0.73571693 -14.71943495 -0.07043062 0 0 Z " fill="#07976A" transform="translate(656.25,262.6875)"/>
<path d="M0 0 C6.0374186 3.67945683 11.00148892 9.46413024 13.125 16.24609375 C14.85126565 25.13944446 13.81074579 33.48396478 9.5625 41.5 C1.96038931 52.61395531 -14.88823198 54.46697492 -27.08886719 57.94165039 C-28.96597713 58.47937157 -30.84298853 59.01743684 -32.71990967 59.55581665 C-37.81950306 61.01751405 -42.92047976 62.47432847 -48.02172756 63.93023992 C-53.46866241 65.48568822 -58.91433521 67.04554332 -64.36016846 68.60484314 C-73.59321136 71.24786978 -82.82707739 73.88800323 -92.06152344 76.52612305 C-101.32906917 79.17370358 -110.59605949 81.82321302 -119.86230469 84.4753418 C-120.98108049 84.79554751 -122.09985629 85.11575322 -123.25253439 85.44566214 C-125.50766356 86.09111766 -127.76279099 86.73657925 -130.01791668 87.38204694 C-144.6744406 91.57699285 -159.33145773 95.77017907 -173.99157715 99.95254517 C-175.10560394 100.27037559 -176.21963073 100.58820601 -177.3674159 100.91566765 C-181.85822292 102.19684713 -186.34903679 103.47800249 -190.8399229 104.7589047 C-204.51908536 108.66092298 -218.19429906 112.5762975 -231.86396194 116.51147205 C-240.84810072 119.09773012 -249.83419581 121.67710148 -258.8217833 124.25134915 C-264.10187592 125.76415654 -269.38074228 127.28097476 -274.65688324 128.80751228 C-279.5271019 130.21659249 -284.40014003 131.61543403 -289.27559948 133.00626874 C-291.05454638 133.51580347 -292.83238586 134.02922279 -294.60901356 134.54678607 C-297.02551879 135.25020319 -299.44556308 135.93976325 -301.86700439 136.6259613 C-302.56755597 136.83350054 -303.26810754 137.04103978 -303.98988795 137.25486809 C-307.82281676 138.32311901 -310.60343819 138.66738369 -314.4375 137.5 C-314.7675 135.52 -315.0975 133.54 -315.4375 131.5 C-311.97171345 128.52660292 -308.7258352 126.53828711 -304.53125 124.75 C-303.33636963 124.23469727 -302.14148926 123.71939453 -300.91040039 123.18847656 C-299.94579391 122.77861511 -299.94579391 122.77861511 -298.96170044 122.36047363 C-295.37242094 120.8346957 -291.79472542 119.2820413 -288.21484375 117.734375 C-287.43902451 117.39984314 -286.66320526 117.06531128 -285.86387634 116.72064209 C-276.99634567 112.89146711 -268.17623323 108.95653418 -259.35470581 105.02282715 C-243.7159687 98.04998634 -228.05853943 91.12145989 -212.375 84.25 C-197.87113089 77.89527022 -183.38899006 71.49372358 -168.92333984 65.05249023 C-160.45847434 61.28375318 -151.9855692 57.53446886 -143.5 53.8125 C-134.77085321 49.98318763 -126.06839603 46.09725306 -117.375 42.1875 C-106.57800307 37.33200523 -95.74817291 32.55658825 -84.89645386 27.82476807 C-71.52446731 21.99280144 -58.19144205 16.07487333 -44.86753845 10.13397217 C-42.77562214 9.20281126 -40.68178483 8.27606807 -38.58789062 7.34936523 C-35.7422712 6.0879706 -32.91045062 4.800049 -30.08398438 3.49633789 C-28.67059598 2.85427865 -27.25718533 2.21226841 -25.84375 1.5703125 C-25.20896729 1.2713356 -24.57418457 0.9723587 -23.92016602 0.6643219 C-16.32508088 -2.7544824 -7.78841326 -3.30372232 0 0 Z " fill="#06966A" transform="translate(584.4375,517.5)"/>
<path d="M0 0 C6.70306244 3.97749814 11.43473729 9.60517005 13.4453125 17.12890625 C14.30747569 25.29676801 14.1048049 32.51093668 10.3203125 39.8828125 C4.33926768 47.04760577 -3.56695645 50.06803223 -12.1171875 53.25390625 C-13.98712633 53.96929998 -15.85705981 54.68470798 -17.72673035 55.40080261 C-19.68406541 56.14826365 -21.64351685 56.88992577 -23.60351562 57.63037109 C-27.47539849 59.09526285 -31.33673924 60.58638692 -35.1953125 62.0859375 C-36.14046974 62.45316925 -36.14046974 62.45316925 -37.10472107 62.82781982 C-38.38256391 63.32436096 -39.66039082 63.82094308 -40.9382019 64.31756592 C-44.19040867 65.58008628 -47.44483393 66.83685696 -50.69921875 68.09375 C-57.84082148 70.85252068 -64.98076899 73.61555056 -72.12020874 76.37991333 C-75.3482953 77.62976628 -78.57649726 78.87932112 -81.8046875 80.12890625 C-83.09635472 80.62890482 -84.38802139 81.12890482 -85.6796875 81.62890625 C-93.42968749 84.62890625 -93.42968749 84.62890625 -95.36711121 85.37887573 C-96.65903307 85.87897517 -97.95095405 86.3790769 -99.24287415 86.87918091 C-102.46812906 88.12767815 -105.69339923 89.37613596 -108.91870117 90.62451172 C-114.77790408 92.89240224 -120.63698672 95.16060125 -126.49551392 97.43023682 C-140.23056137 102.75126638 -153.9693853 108.06203347 -167.71923828 113.34472656 C-180.0211202 118.07318614 -192.30979725 122.83570726 -204.59912109 127.59667969 C-210.4397048 129.85925625 -216.28098674 132.12002895 -222.1222229 134.38092041 C-225.34974034 135.63017349 -228.57721156 136.87954597 -231.8046875 138.12890625 C-233.09635395 138.62890682 -234.38802061 139.12890682 -235.6796875 139.62890625 C-236.3190625 139.87640625 -236.9584375 140.12390625 -237.6171875 140.37890625 C-243.4296875 142.62890625 -243.4296875 142.62890625 -245.36685181 143.3787384 C-246.65967147 143.87921001 -247.95245708 144.37976963 -249.24520874 144.88041687 C-252.45646221 146.12392192 -255.66827593 147.36593634 -258.88134766 148.60473633 C-264.90857243 150.93034574 -270.92888027 153.27062086 -276.9307251 155.66110229 C-279.74955749 156.78281059 -282.57154333 157.89645864 -285.39379883 159.00952148 C-286.73149526 159.53969137 -288.06765544 160.0737571 -289.40209961 160.61206055 C-296.51811108 163.48149312 -302.85673665 165.77144201 -310.5546875 166.12890625 C-312.5546875 163.12890625 -312.5546875 163.12890625 -312.3671875 161.12890625 C-310.60600748 156.79369389 -307.19284534 155.30577768 -303.1171875 153.37890625 C-297.86781882 150.82379186 -292.83886887 148.03484751 -287.83203125 145.03515625 C-279.4527116 140.16136842 -270.85254468 135.70184837 -262.2421875 131.25390625 C-254.62704216 127.30497313 -247.13693832 123.22798767 -239.72265625 118.9140625 C-236.46477307 117.0782393 -233.16057803 115.40315234 -229.8046875 113.75390625 C-223.77942619 110.78793138 -217.91871993 107.59379029 -212.0625 104.30859375 C-205.34887109 100.55029982 -198.58343142 96.89325682 -191.8046875 93.25390625 C-170.24256869 81.72914849 -170.24256869 81.72914849 -148.9296875 69.75390625 C-143.87107431 66.83315935 -138.72946749 64.19189539 -133.484375 61.625 C-129.40185599 59.54019362 -125.49497085 57.18719949 -121.5546875 54.84765625 C-117.63851962 52.6040184 -113.6068015 50.64400373 -109.5546875 48.66015625 C-106.47999116 47.09078 -103.52263495 45.39112505 -100.5546875 43.62890625 C-96.62086435 41.29319875 -92.66360789 39.14056519 -88.5546875 37.12890625 C-84.48676093 35.13720714 -80.57124557 33.00879295 -76.6796875 30.69140625 C-72.3505245 28.1188408 -67.95138081 25.77840934 -63.4296875 23.56640625 C-59.35827256 21.5663348 -55.41313042 19.51355048 -51.5546875 17.12890625 C-46.56961937 14.0479707 -41.36307117 11.5174601 -36.10546875 8.9375 C-31.61265825 6.64908277 -27.29591168 4.11616739 -22.98046875 1.51171875 C-16.56956594 -2.14280556 -6.97933888 -2.37980515 0 0 Z " fill="#06966A" transform="translate(583.5546875,438.87109375)"/>
<path d="M0 0 C5.64709231 4.4370011 9.32633008 9.50211516 10.96875 16.546875 C11.71376172 23.14555021 10.41417912 28.82176346 6.96875 34.546875 C2.48693318 39.79850051 -2.15953528 43.09055369 -8.3828125 45.97265625 C-9.18259521 46.35786438 -9.98237793 46.74307251 -10.80639648 47.13995361 C-13.41670275 48.39348024 -16.03621875 49.62632291 -18.65625 50.859375 C-20.49078618 51.7360551 -22.32459833 52.61425176 -24.15771484 53.49389648 C-27.92500612 55.29994221 -31.69558195 57.09884439 -35.46875 58.89257812 C-43.11150101 62.53157281 -50.71460713 66.25126255 -58.31967163 69.96817017 C-68.80303787 75.08833578 -79.30392616 80.16884233 -89.84375 85.171875 C-100.24166117 90.10977909 -110.52963986 95.26261886 -120.80395508 100.45166016 C-129.51130529 104.84005559 -138.28510577 109.07670835 -147.08752441 113.27099609 C-156.63057444 117.82195484 -166.12900388 122.46150992 -175.62054443 127.1187439 C-180.72762839 129.62452309 -185.83658397 132.12648215 -190.9453125 134.62890625 C-191.97157745 135.13170609 -192.99784241 135.63450592 -194.0552063 136.15254211 C-205.2392649 141.63083334 -216.43526294 147.08450945 -227.6328125 152.53515625 C-229.21094321 153.30337368 -230.7890682 154.07160287 -232.3671875 154.83984375 C-233.14777527 155.21982513 -233.92836304 155.59980652 -234.73260498 155.99130249 C-241.64839481 159.35867706 -248.56025228 162.73407944 -255.47134399 166.11108398 C-259.89362533 168.27163966 -264.31685264 170.43020371 -268.74267578 172.58349609 C-269.9984996 173.19451172 -269.9984996 173.19451172 -271.2796936 173.81787109 C-272.92042148 174.61612945 -274.56118809 175.41430819 -276.20199585 176.21240234 C-280.99551898 178.5466956 -285.77521167 180.90650689 -290.546875 183.28515625 C-292.62499165 184.30991276 -294.70311583 185.33465401 -296.78125 186.359375 C-298.12799805 187.04386719 -298.12799805 187.04386719 -299.50195312 187.7421875 C-305.29257791 190.5752103 -305.29257791 190.5752103 -308.984375 190.43359375 C-311.03125 189.546875 -311.03125 189.546875 -313.03125 187.546875 C-312.87240325 184.55285442 -312.53306797 183.04276132 -310.37890625 180.9140625 C-309.62480469 180.42164063 -308.87070312 179.92921875 -308.09375 179.421875 C-307.19914062 178.83277344 -306.30453125 178.24367188 -305.3828125 177.63671875 C-300.51460706 174.60118273 -295.63372369 171.58688439 -290.71704102 168.63037109 C-286.17473766 165.89510257 -281.73718101 163.04499556 -277.33813477 160.08520508 C-273.27973618 157.37889018 -269.15200791 154.78182708 -265.03125 152.171875 C-263.0792464 150.93257621 -261.12743071 149.69298141 -259.17578125 148.453125 C-258.16725098 147.81246094 -257.1587207 147.17179688 -256.11962891 146.51171875 C-250.97967718 143.24165302 -245.84899164 139.9571463 -240.71875 136.671875 C-239.68516357 136.01002197 -238.65157715 135.34816895 -237.58666992 134.66625977 C-235.4753815 133.31419268 -233.36413501 131.96206011 -231.25292969 130.60986328 C-227.96340326 128.50342964 -224.673214 126.39803516 -221.3828125 124.29296875 C-211.87031591 118.20717215 -202.35901343 112.11973876 -192.86328125 106.0078125 C-186.3889175 101.84559259 -179.89992344 97.70613314 -173.41552734 93.55957031 C-167.31689693 89.65725183 -161.22860525 85.73993444 -155.15625 81.796875 C-148.69198878 77.60151123 -142.18585311 73.47593478 -135.66503906 69.36914062 C-125.83964239 63.17563868 -116.06637725 56.90079296 -106.28808594 50.63330078 C-103.01874331 48.53886284 -99.74791162 46.44677112 -96.4765625 44.35546875 C-87.35575057 38.52408492 -78.23623087 32.69169217 -69.15625 26.796875 C-62.45079729 22.4440699 -55.70050145 18.16516203 -48.93554688 13.90551758 C-42.90272068 10.10506162 -36.90045386 6.25984183 -30.9140625 2.38671875 C-29.96273438 1.77957031 -29.01140625 1.17242187 -28.03125 0.546875 C-27.16242188 -0.00871094 -26.29359375 -0.56429688 -25.3984375 -1.13671875 C-17.55857454 -5.49651053 -7.41869506 -4.78452073 0 0 Z " fill="#06966A" transform="translate(587.03125,367.453125)"/>
<path d="M0 0 C1.37279356 0.03592825 2.74531428 0.08330673 4.11743164 0.1394043 C4.863396 0.16169601 5.60936035 0.18398773 6.37792969 0.20695496 C8.84489449 0.28289011 11.31111435 0.3732199 13.77758789 0.46362305 C15.49117956 0.51928505 17.20480351 0.57396131 18.91845703 0.62768555 C22.46281373 0.73983501 26.00694805 0.8571425 29.55102539 0.9777832 C34.57393459 1.14609432 39.59726599 1.28455322 44.62133789 1.4128418 C46.17871209 1.45340614 47.73608516 1.49401412 49.29345703 1.53466797 C51.5011907 1.59221715 53.70892733 1.649402 55.91671753 1.70474243 C57.96288021 1.75681808 60.00889954 1.81292141 62.05493164 1.86987305 C63.20082764 1.90016602 64.34672363 1.93045898 65.52734375 1.96166992 C69.31451089 2.0986012 73.08863111 2.37264085 76.86865234 2.63964844 C83.95686082 3.12268506 91.03524485 3.39324416 98.13839531 3.56635475 C100.24714095 3.61789593 102.35575169 3.67342933 104.46437073 3.72990417 C107.46658605 3.81015338 110.46882769 3.88925256 113.47109985 3.96734619 C138.61836426 4.62452246 163.74318639 5.35166798 188.84008789 7.15112305 C184.87436457 50.38773402 184.87436457 50.38773402 174.71508789 59.08862305 C171.02751795 61.73405366 169.45576001 62.27743607 165.00366211 62.27514648 C163.92754669 62.27589172 162.85143127 62.27663696 161.7427063 62.27740479 C160.5141391 62.27182556 159.2855719 62.26624634 158.01977539 62.26049805 C156.67406211 62.25697031 155.32834882 62.25345099 153.9826355 62.24993896 C132.72630915 62.17307141 111.47012022 61.88988466 90.21619034 61.57604218 C82.67285382 61.46501499 75.1295732 61.36686283 67.58586419 61.28483701 C61.55580661 61.21803262 55.52623246 61.13011063 49.4965477 61.03499603 C46.95860363 60.99811391 44.42055439 60.96782316 41.8824501 60.94443512 C38.35233492 60.91062283 34.82338507 60.85258039 31.29370117 60.78881836 C30.26202316 60.78449799 29.23034515 60.78017761 28.16740417 60.77572632 C20.12366067 60.59036098 13.26903466 58.95404914 7.52758789 53.02612305 C1.22499991 44.76157241 -0.53716899 34.28752234 -2.68530273 24.34692383 C-2.99886979 22.89619231 -3.31778543 21.44660537 -3.64233398 19.99829102 C-4.09713562 17.96819615 -4.53739114 15.93553812 -4.97241211 13.90112305 C-5.22635742 12.7203418 -5.48030273 11.53956055 -5.74194336 10.32299805 C-6.15335034 7.20091889 -6.10765588 5.13731012 -5.15991211 2.15112305 C-3.15991211 0.15112305 -3.15991211 0.15112305 0 0 Z " fill="#08976B" transform="translate(795.159912109375,548.848876953125)"/>
<path d="M0 0 C0 8.58 0 17.16 0 26 C-3.3825 25.67 -6.765 25.34 -10.25 25 C-19.72810997 24.1711209 -29.17374888 23.75422715 -38.6875 23.6875 C-39.81897461 23.67009766 -40.95044922 23.65269531 -42.11621094 23.63476562 C-50.87435931 23.63989785 -61.00169047 23.88131857 -68.125 29.4375 C-74.11701506 38.83471266 -73.470541 51.10256215 -73.39111328 61.79882812 C-73.37506989 64.36382582 -73.39101484 66.92723825 -73.41015625 69.4921875 C-73.73862956 87.97036255 -73.73862956 87.97036255 -66 104 C-60.03227973 108.32145261 -50.09189951 107.29602733 -43.0625 107.5625 C-39.411875 107.706875 -35.76125 107.85125 -32 108 C-32 98.76 -32 89.52 -32 80 C-38.27 80 -44.54 80 -51 80 C-51 71.42 -51 62.84 -51 54 C-34.17 54 -17.34 54 0 54 C0 79.41 0 104.82 0 131 C-5.17361259 132.47817503 -9.85561221 133.54045639 -15.140625 134.109375 C-15.91569397 134.19346619 -16.69076294 134.27755737 -17.48931885 134.36419678 C-26.02222257 135.21125906 -34.53742264 135.30205164 -43.10595703 135.26074219 C-45.7622732 135.24995014 -48.41792186 135.26075362 -51.07421875 135.2734375 C-68.2154921 135.28785413 -84.72334883 135.02794703 -97.80078125 122.56640625 C-104.45615387 114.79983465 -106.9651126 104.28211754 -108.109375 94.3203125 C-108.19346619 93.59087433 -108.27755737 92.86143616 -108.36419678 92.1098938 C-109.22802406 83.89854891 -109.30152739 75.70125256 -109.26074219 67.45166016 C-109.24997866 64.86988011 -109.26073632 62.28879105 -109.2734375 59.70703125 C-109.28990534 41.0398498 -108.49583698 21.48685741 -95.1875 7.03125 C-75.61373223 -11.59539997 -23.67618831 -9.47047532 0 0 Z " fill="#202A38" transform="translate(378,847)"/>
<path d="M0 0 C32.01 0 64.02 0 97 0 C97 9.24 97 18.48 97 28 C76.54 28 56.08 28 35 28 C35 36.58 35 45.16 35 54 C52.49 54 69.98 54 88 54 C88 63.24 88 72.48 88 82 C70.51 82 53.02 82 35 82 C35 90.91 35 99.82 35 109 C55.46 109 75.92 109 97 109 C97 118.24 97 127.48 97 137 C64.99 137 32.98 137 0 137 C0 91.79 0 46.58 0 0 Z " fill="#202A38" transform="translate(1164,844)"/>
<path d="M0 0 C0.69999115 -0.00200409 1.3999823 -0.00400818 2.1211853 -0.006073 C31.17097537 -0.02634154 31.17097537 -0.02634154 44 4.25 C44 13.16 44 22.07 44 31.25 C40.349375 30.92 36.69875 30.59 32.9375 30.25 C24.11869983 29.50950788 15.35076043 29.05665067 6.5 29.0625 C5.57695068 29.06185547 4.65390137 29.06121094 3.70288086 29.06054688 C-7.05474057 28.85245023 -7.05474057 28.85245023 -17 32.25 C-18.41693757 35.08387515 -18.1699013 37.53029373 -18.1875 40.6875 C-18.20167969 41.84121094 -18.21585937 42.99492188 -18.23046875 44.18359375 C-18.23925088 47.42280168 -18.23925088 47.42280168 -16 50.25 C-14.07134147 50.89218488 -14.07134147 50.89218488 -11.80078125 51.09375 C-10.93219482 51.20388428 -10.0636084 51.31401855 -9.16870117 51.42749023 C-8.22615479 51.53391846 -7.2836084 51.64034668 -6.3125 51.75 C-5.34094971 51.8725415 -4.36939941 51.99508301 -3.3684082 52.12133789 C0.79984023 52.64449731 4.9716543 53.1326709 9.14550781 53.60888672 C11.20739184 53.84470621 13.26869231 54.08568973 15.3293457 54.33203125 C17.26643824 54.56285265 19.20509291 54.78104417 21.14526367 54.984375 C30.11615274 56.05446758 37.49282771 58.8941573 44 65.25 C53.37481108 77.48933669 52.10425084 95.57438506 51 110.25 C49.59182196 119.06774829 45.61649817 126.31100817 39 132.25 C38.50113281 132.73984375 38.00226563 133.2296875 37.48828125 133.734375 C27.04316156 142.67981756 9.33991428 140.68334986 -3.4296875 140.58618164 C-6.7294177 140.5626468 -10.02833224 140.56563263 -13.328125 140.57226562 C-25.71771471 140.55449053 -37.71441891 139.87298992 -50 138.25 C-50 129.01 -50 119.77 -50 110.25 C-47.256875 110.415 -44.51375 110.58 -41.6875 110.75 C-32.14168626 111.23457515 -22.59232768 111.41989849 -13.03555298 111.48217773 C-11.47933128 111.49398982 -9.92313979 111.51101751 -8.36703491 111.53344727 C3.18293104 111.84355453 3.18293104 111.84355453 14 108.25 C15.50945463 105.23109074 15.30648821 102.12286494 15.375 98.8125 C15.43107422 97.7905957 15.43107422 97.7905957 15.48828125 96.74804688 C15.5829581 94.49229363 15.5829581 94.49229363 15 91.25 C11.13940605 88.17885645 7.54087213 87.68811653 2.71484375 87.1875 C1.66944176 87.07136353 1.66944176 87.07136353 0.60292053 86.95288086 C-1.61783056 86.707193 -3.83978488 86.47717758 -6.0625 86.25 C-38.15072452 82.9144995 -38.15072452 82.9144995 -48.52734375 70.36328125 C-56.46381718 58.97433662 -55.70985833 40.31450254 -53.421875 27.203125 C-50.96160221 17.85408838 -45.34022518 12.01152849 -38.1875 5.8125 C-26.34637933 0.00802908 -12.89275325 0.01790372 0 0 Z " fill="#212B38" transform="translate(518,841.75)"/>
<path d="M0 0 C1.09610596 0.00080566 2.19221191 0.00161133 3.3215332 0.00244141 C10.02568236 0.05233002 16.64800703 0.32396393 23.3125 1.0625 C24.02325684 1.14089111 24.73401367 1.21928223 25.46630859 1.30004883 C29.67961312 1.83271266 33.01080528 2.81610176 37.125 4.1875 C37.125 12.7675 37.125 21.3475 37.125 30.1875 C27.10996905 30.1875 27.10996905 30.1875 23.640625 29.69921875 C12.27623654 28.30700724 -6.00496486 26.40750372 -15.6484375 33.1171875 C-20.02904341 37.19038247 -20.72753164 42.63220088 -20.96832275 48.43740845 C-21.00703007 51.13195473 -21.01357278 53.82471122 -21.0078125 56.51953125 C-21.00876923 57.51071457 -21.00972595 58.50189789 -21.01071167 59.52311707 C-21.01139044 61.61510278 -21.00955731 63.70709063 -21.00537109 65.79907227 C-21.0000357 68.97872732 -21.0053176 72.15824003 -21.01171875 75.33789062 C-21.01105758 77.37760448 -21.00977562 79.41731824 -21.0078125 81.45703125 C-21.00983673 82.3979512 -21.01186096 83.33887115 -21.01394653 84.30830383 C-21.18574721 96.30002124 -21.18574721 96.30002124 -16.875 107.1875 C-10.72968251 112.13789464 -2.50294838 111.3290108 4.99609375 111.28515625 C5.918423 111.2837413 6.84075226 111.28232635 7.79103088 111.28086853 C10.71488798 111.27530506 13.63866635 111.26275942 16.5625 111.25 C18.55403535 111.24498028 20.5455719 111.2404182 22.53710938 111.23632812 C27.39979376 111.22620175 32.26230954 111.20661936 37.125 111.1875 C37.125 119.7675 37.125 128.3475 37.125 137.1875 C29.13840432 139.84969856 21.74935505 140.34296584 13.390625 140.35546875 C12.59074158 140.35879715 11.79085815 140.36212555 10.96673584 140.36555481 C9.2860979 140.37057973 7.60545013 140.37296452 5.92480469 140.37280273 C3.39500937 140.37498276 0.86565566 140.39316847 -1.6640625 140.41210938 C-17.75216397 140.46855054 -33.65879116 140.08652591 -45.90234375 128.3828125 C-56.70111686 116.36516797 -57.02439244 99.7532062 -57.04296875 84.4296875 C-57.04629715 83.44235626 -57.04962555 82.45502502 -57.05305481 81.43777466 C-57.05808082 79.36216695 -57.06046449 77.28655129 -57.06030273 75.2109375 C-57.06248011 72.09100507 -57.08065782 68.97143224 -57.09960938 65.8515625 C-57.21897546 24.50302733 -57.21897546 24.50302733 -44.73046875 11.828125 C-32.56268082 1.06923883 -15.59381836 -0.01191732 0 0 Z " fill="#212B39" transform="translate(826.875,841.8125)"/>
<path d="M0 0 C36.3 0 72.6 0 110 0 C110 9.57 110 19.14 110 29 C97.46 29 84.92 29 72 29 C72 64.64 72 100.28 72 137 C60.78 137 49.56 137 38 137 C38 101.36 38 65.72 38 29 C25.46 29 12.92 29 0 29 C0 19.43 0 9.86 0 0 Z " fill="#1F2937" transform="translate(582,844)"/>
<path d="M0 0 C11.55 0 23.1 0 35 0 C35 35.64 35 71.28 35 108 C52.82 108 70.64 108 89 108 C89 117.57 89 127.14 89 137 C59.63 137 30.26 137 0 137 C0 91.79 0 46.58 0 0 Z " fill="#202A38" transform="translate(23,844)"/>
<path d="M0 0 C11.55 0 23.1 0 35 0 C35 45.54 35 91.08 35 138 C23.45 138 11.9 138 0 138 C0 92.46 0 46.92 0 0 Z " fill="#222C3A" transform="translate(709,843)"/>
<path d="M0 0 C11.22 0 22.44 0 34 0 C34 45.21 34 90.42 34 137 C22.78 137 11.56 137 0 137 C0 91.79 0 46.58 0 0 Z " fill="#1F2937" transform="translate(406,844)"/>
<path d="M0 0 C0.83845459 -0.01393799 1.67690918 -0.02787598 2.54077148 -0.04223633 C8.27654221 0.00099107 13.79204607 0.67250756 18.9375 3.375 C27.06588812 12.25859978 24.12378165 30.37054359 24.12280273 41.56542969 C24.12499554 44.36929374 24.14323108 47.17276732 24.16210938 49.9765625 C24.23675055 73.41077492 24.23675055 73.41077492 20.125 80.5 C16.13824861 83.91721548 12.38867982 84.62870128 7.2265625 84.640625 C6.14632812 84.64320313 5.06609375 84.64578125 3.953125 84.6484375 C2.27476562 84.63683594 2.27476562 84.63683594 0.5625 84.625 C-0.54867187 84.63273438 -1.65984375 84.64046875 -2.8046875 84.6484375 C-15.74340608 84.61763103 -15.74340608 84.61763103 -21.375 80.8125 C-26.032638 74.08480066 -25.35733342 65.03146707 -25.328125 57.18359375 C-25.33003845 56.03891129 -25.3319519 54.89422882 -25.33392334 53.71485901 C-25.33527797 51.30705545 -25.33163226 48.8992444 -25.32324219 46.49145508 C-25.3125228 42.82030754 -25.32316749 39.1496482 -25.3359375 35.47851562 C-25.33461597 33.13020726 -25.33205371 30.7818992 -25.328125 28.43359375 C-25.33217346 27.34380722 -25.33622192 26.25402069 -25.34039307 25.13121033 C-25.24204246 9.04012457 -25.24204246 9.04012457 -20.0625 3.375 C-13.9420395 -0.08257222 -6.83599996 0.07362717 0 0 Z " fill="#FCFCFC" transform="translate(944.0625,869.625)"/>
<path d="M0 0 C0.83845459 -0.01393799 1.67690918 -0.02787598 2.54077148 -0.04223633 C8.27654221 0.00099107 13.79204607 0.67250756 18.9375 3.375 C27.06588812 12.25859978 24.12378165 30.37054359 24.12280273 41.56542969 C24.12499554 44.36929374 24.14323108 47.17276732 24.16210938 49.9765625 C24.23675055 73.41077492 24.23675055 73.41077492 20.125 80.5 C16.13824861 83.91721548 12.38867982 84.62870128 7.2265625 84.640625 C6.14632812 84.64320313 5.06609375 84.64578125 3.953125 84.6484375 C2.27476562 84.63683594 2.27476562 84.63683594 0.5625 84.625 C-0.54867187 84.63273438 -1.65984375 84.64046875 -2.8046875 84.6484375 C-15.74340608 84.61763103 -15.74340608 84.61763103 -21.375 80.8125 C-26.032638 74.08480066 -25.35733342 65.03146707 -25.328125 57.18359375 C-25.33003845 56.03891129 -25.3319519 54.89422882 -25.33392334 53.71485901 C-25.33527797 51.30705545 -25.33163226 48.8992444 -25.32324219 46.49145508 C-25.3125228 42.82030754 -25.32316749 39.1496482 -25.3359375 35.47851562 C-25.33461597 33.13020726 -25.33205371 30.7818992 -25.328125 28.43359375 C-25.33217346 27.34380722 -25.33622192 26.25402069 -25.34039307 25.13121033 C-25.24204246 9.04012457 -25.24204246 9.04012457 -20.0625 3.375 C-13.9420395 -0.08257222 -6.83599996 0.07362717 0 0 Z " fill="#FCFCFC" transform="translate(188.0625,869.625)"/>
<path d="M0 0 C23.31994013 -0.41975892 46.45987916 1.20990001 69.67431641 3.25170898 C78.94429287 4.04402122 88.2261091 4.55430059 97.51516724 5.05661011 C106.58780535 5.54857719 115.65269216 6.09840963 124.71484375 6.7578125 C125.62164383 6.82370071 126.52844391 6.88958893 127.46272278 6.95747375 C131.14243257 7.22554233 134.8220931 7.49425899 138.50161743 7.76486206 C147.74271275 8.43951119 156.97057437 9.06527685 166.234375 9.30859375 C167.30434723 9.33694054 167.30434723 9.33694054 168.39593506 9.36585999 C171.6638362 9.44652517 174.92933161 9.50388292 178.19824219 9.53344727 C185.57771235 9.66213472 191.99491182 10.66934605 199 13 C200.08152344 13.35320312 201.16304687 13.70640625 202.27734375 14.0703125 C217.15683677 19.96967097 230.59137144 32.06313572 240 45 C240 45.66 240 46.32 240 47 C238.33271516 46.88353525 236.666182 46.75630239 235 46.625 C234.071875 46.55539062 233.14375 46.48578125 232.1875 46.4140625 C229.19390092 46.02518811 226.39220559 45.34245178 223.4765625 44.57958984 C217.87708148 43.26914348 212.17065971 42.44225463 206.5 41.5 C198.91457033 40.23958117 191.44360343 38.9273616 184 37 C181.83821745 36.63633565 179.6713966 36.30098567 177.5 36 C174.0885414 35.52712455 170.83680204 34.95774338 167.5 34.09375 C161.25173186 32.47936493 154.86080561 31.55693145 148.5 30.5 C134.12261834 28.11100909 134.12261834 28.11100909 128.11572266 26.50927734 C122.94748756 25.26522721 117.67278725 24.4713774 112.4375 23.5625 C102.59577595 21.83001184 92.78649042 20.02238638 83 18 C64.0606182 14.13205213 64.0606182 14.13205213 45 10.9375 C40.96048267 10.33850294 37.09247655 9.56745127 33.15625 8.5 C30.29095648 7.83558411 27.40977945 7.42712359 24.5 7 C19.5441433 6.27002341 14.840667 5.26968315 10 4 C6.67319925 3.29911557 3.3384202 2.64305635 0 2 C0 1.34 0 0.68 0 0 Z " fill="#09976B" transform="translate(748,477)"/>
<path d="M0 0 C9.58129188 4.69671171 13.61859378 13.35342225 17 23 C17.24878906 23.70640625 17.49757813 24.4128125 17.75390625 25.140625 C22.34984047 41.46744027 18.20536381 58.13166717 11.01171875 72.87109375 C7.85163789 77.7860933 3.7491497 81.41898383 -2 83 C-7.07346792 83.78920612 -10.02976977 82.26500029 -14.11328125 79.47265625 C-20.22391016 74.70307634 -22.47706958 69.13662261 -25 62 C-25.391875 60.948125 -25.78375 59.89625 -26.1875 58.8125 C-30.3755587 44.31537372 -29.0480457 26.5335914 -22.3125 13.0625 C-17.02725876 4.09480997 -10.55223164 -1.24984131 0 0 Z " fill="#FCFDFD" transform="translate(697,649)"/>
<path d="M0 0 C4.04732087 22.74719413 7.93809513 45.526799 11.375 68.375 C11.54249756 69.47247559 11.70999512 70.56995117 11.88256836 71.70068359 C12.59149953 76.50553429 13.21770238 81.12681593 13 86 C5.58337416 85.50492356 -1.24043962 83.2526898 -8.25610352 80.92675781 C-10.31952246 80.24768892 -12.39049158 79.59637917 -14.46289062 78.9453125 C-15.78440346 78.51208865 -17.10538791 78.07724897 -18.42578125 77.640625 C-19.61598877 77.25422852 -20.80619629 76.86783203 -22.0324707 76.46972656 C-25.55600437 74.72462803 -26.30074845 73.48796497 -28 70 C-28.36076355 67.42460632 -28.36076355 67.42460632 -28.34057617 64.65893555 C-28.34034958 63.6182341 -28.34012299 62.57753265 -28.33988953 61.5052948 C-28.32440567 60.3936647 -28.30892181 59.28203461 -28.29296875 58.13671875 C-28.28872391 56.98959915 -28.28447906 55.84247955 -28.28010559 54.66059875 C-28.26333484 51.00265879 -28.22568435 47.345273 -28.1875 43.6875 C-28.17245114 41.20508609 -28.15876309 38.72266353 -28.14648438 36.24023438 C-28.11343649 30.15996769 -28.0632524 24.08002344 -28 18 C-29.02843018 18.00870117 -29.02843018 18.00870117 -30.07763672 18.01757812 C-31.42752686 18.0243457 -31.42752686 18.0243457 -32.8046875 18.03125 C-33.69655762 18.03705078 -34.58842773 18.04285156 -35.50732422 18.04882812 C-38.10784791 17.99788741 -40.4856512 17.67049301 -43 17 C-37.27357109 8.03689387 -25.15476669 6.41863679 -15.5625 3.75 C-14.27132743 3.38336474 -12.98031054 3.01618081 -11.68945312 2.6484375 C-2.29546523 0 -2.29546523 0 0 0 Z " fill="#09976B" transform="translate(719,400)"/>
<path d="M0 0 C53.46 0 106.92 0 162 0 C162.33 1.65 162.66 3.3 163 5 C156.39816263 9.95063862 149.95244282 9.575192 141.96166992 9.53344727 C140.53844816 9.54051257 139.11523392 9.54926016 137.69203186 9.55955505 C133.84053422 9.58199507 129.98944859 9.57912145 126.1379106 9.57023358 C122.91500309 9.56510983 119.69217206 9.57242779 116.46927243 9.57970566 C108.86055001 9.59668883 101.25202819 9.59315636 93.64331055 9.57641602 C85.81276387 9.55950947 77.98277526 9.57531227 70.15228957 9.6076389 C63.41315264 9.63439869 56.67418875 9.64159323 49.93500406 9.63312382 C45.9171929 9.6282115 41.89971708 9.63031707 37.88194847 9.65091133 C34.10023061 9.66936848 30.31930983 9.66318919 26.5376339 9.63871193 C24.50234576 9.63137681 22.46701452 9.64848316 20.43179321 9.66653442 C12.44009733 9.5844576 6.77553851 8.32085791 0 4 C0 2.68 0 1.36 0 0 Z " fill="#ECF7F3" transform="translate(808,641)"/>
<path d="M0 0 C5.15625 -0.061875 10.3125 -0.12375 15.625 -0.1875 C17.24100098 -0.21481201 18.85700195 -0.24212402 20.52197266 -0.27026367 C22.44855713 -0.28150269 22.44855713 -0.28150269 24.4140625 -0.29296875 C25.7232666 -0.3086792 27.0324707 -0.32438965 28.38134766 -0.34057617 C32.28017082 0.0263688 34.67232933 0.97875049 38 3 C40.86487135 6.51710431 40.33111238 11.04203806 40.3125 15.375 C40.32861328 16.1175 40.34472656 16.86 40.36132812 17.625 C40.3655775 22.43529053 39.90945271 25.98246652 37 30 C32.03800552 32.58083386 28.42227839 33.36595208 22.75390625 33.29296875 C21.5532251 33.28547607 20.35254395 33.2779834 19.11547852 33.27026367 C17.61299561 33.24295166 16.1105127 33.21563965 14.5625 33.1875 C9.756875 33.125625 4.95125 33.06375 0 33 C0 22.11 0 11.22 0 0 Z " fill="#FDFDFD" transform="translate(1064,872)"/>
<path d="M0 0 C31.66688139 -0.27023071 63.28271082 0.10288444 94.9375 0.9375 C95.77719582 0.95938133 96.61689163 0.98126266 97.48203278 1.00380707 C106.93495363 1.25018561 116.38719468 1.51128509 125.83861542 1.81009293 C130.31933299 1.95130871 134.80018173 2.07173754 139.28173828 2.18408203 C141.37665673 2.24807703 143.4715489 2.31294141 145.56640625 2.37890625 C146.48800034 2.39735092 147.40959442 2.41579559 148.3591156 2.43479919 C155.81801661 2.70344978 155.81801661 2.70344978 159 6 C158.625 7.9375 158.625 7.9375 158 10 C154.85967909 11.57016046 151.51334049 11.11843422 148.06860352 11.08764648 C147.26547257 11.08378402 146.46234163 11.07992155 145.63487339 11.07594204 C136.72195492 11.01867858 127.81245677 10.81799724 118.90234375 10.59765625 C117.13033799 10.55510703 115.35832967 10.51266457 113.58631897 10.47032166 C109.90475811 10.38182187 106.22324144 10.29170111 102.54174805 10.20043945 C97.87392258 10.08490678 93.20599986 9.97402431 88.53803158 9.86443424 C84.8889501 9.77814332 81.2399402 9.68907166 77.59094429 9.59924126 C75.87175223 9.55728763 74.15253842 9.51621368 72.43330193 9.4761219 C63.19466264 9.25929556 53.98175009 8.92391161 44.75832081 8.34507656 C39.69279302 8.02920976 34.64448316 7.84273197 29.5703125 7.7890625 C27.99868575 7.76109233 26.42707119 7.73242923 24.85546875 7.703125 C22.4614164 7.66141158 20.0676212 7.6243829 17.67333984 7.59863281 C15.30523216 7.57117924 12.93806132 7.52545407 10.5703125 7.4765625 C9.85167023 7.47330963 9.13302795 7.47005676 8.39260864 7.46670532 C5.52723628 7.39539289 3.46529731 7.30179269 1.02685547 5.72021484 C0 4 0 4 0 0 Z " fill="#F1F9F6" transform="translate(807,565)"/>
<path d="M0 0 C1.63232674 3.63563684 2.98563048 6.9452162 4 10.8125 C4.71661176 14.26452452 4.71661176 14.26452452 8 16 C10.74293505 16.2590078 13.45678291 16.31396443 16.2109375 16.36328125 C20.25961153 17.28755837 21.51084452 18.66100852 24 22 C24.69501755 25.74026749 24.58185721 29.4141283 24.48828125 33.20703125 C24.48120651 34.28756271 24.47413177 35.36809418 24.46684265 36.48136902 C24.43889847 39.92578945 24.37615633 43.36857255 24.3125 46.8125 C24.28741733 49.15036712 24.26460411 51.48825976 24.24414062 53.82617188 C24.18907176 59.55133801 24.10544419 65.27555203 24 71 C22.06520292 71.04140938 20.13015179 71.07107376 18.19506836 71.09570312 C17.11752792 71.11346802 16.03998749 71.13123291 14.92979431 71.14953613 C12 71 12 71 8.87890625 69.46875 C6.47354412 66.30827418 5.64965682 63.32671338 4.9375 59.5 C4.78031494 58.73389404 4.62312988 57.96778809 4.46118164 57.1784668 C2.77093065 48.56128734 1.62397426 39.84809921 0.43823242 31.15014648 C-0.59307884 23.61688882 -1.82209208 16.20353586 -3.484375 8.78515625 C-3.97838352 6.11676175 -4.09966316 3.70585482 -4 1 C-2 0 -2 0 0 0 Z " fill="#0B986C" transform="translate(953,415)"/>
<path d="M0 0 C7.99722824 8.17898343 8.26862131 19.26437203 8.375 30.125 C8.39590698 31.5018396 8.39590698 31.5018396 8.41723633 32.90649414 C8.35891044 41.36526328 6.82558222 49.90664297 1.453125 56.703125 C0 58 0 58 -3.5 59.3125 C-7 59 -7 59 -9.75 56.4375 C-10.53378357 55.31450519 -11.28535927 54.16821345 -12 53 C-12.8353125 51.63875 -12.8353125 51.63875 -13.6875 50.25 C-19.04552971 36.98249785 -18.28749522 21.47016216 -14 8 C-10.62520386 0.88958045 -8.27600098 -2.24433925 0 0 Z " fill="#FAFDFC" transform="translate(424,683)"/>
<path d="M0 0 C24.75 0 49.5 0 75 0 C71.48360656 11.72131148 71.48360656 11.72131148 68 15 C64.53662861 16.65636526 61.76125139 17.25415124 57.93774414 17.2746582 C56.95645035 17.28419022 55.97515656 17.29372223 54.96412659 17.30354309 C53.91506638 17.30263168 52.86600616 17.30172028 51.78515625 17.30078125 C50.69665878 17.30506638 49.60816132 17.3093515 48.48667908 17.31376648 C46.18782242 17.31950191 43.88894761 17.32001585 41.59008789 17.31567383 C38.07862302 17.31251451 34.56800136 17.33598156 31.05664062 17.36132812 C28.82031356 17.36360129 26.58398424 17.36430453 24.34765625 17.36328125 C22.77710228 17.37709587 22.77710228 17.37709587 21.17481995 17.39118958 C14.48646347 17.34887098 9.80405946 16.72394348 4.8125 11.875 C3 9 3 9 0 0 Z " fill="#FDFEFE" transform="translate(853,670)"/>
<path d="M0 0 C31.06561393 -0.27792989 62.08235194 0.49260541 93.13330078 1.39068604 C99.57117648 1.5756789 106.00922844 1.75432538 112.44726562 1.93359375 C124.96501832 2.28304495 137.48256895 2.63922282 150 3 C150.33 4.32 150.66 5.64 151 7 C146.17372018 10.87706689 141.4931897 10.3527119 135.61328125 10.2109375 C134.56320389 10.19791595 133.51312653 10.18489441 132.43122864 10.17147827 C130.14874246 10.14181278 127.86633517 10.10550476 125.58404541 10.06335449 C121.97837186 9.99961768 118.37316791 9.95972753 114.76708984 9.92675781 C106.90683111 9.85167824 99.04718225 9.74481373 91.1875 9.625 C90.49145912 9.61439293 89.79541824 9.60378586 89.07828522 9.59285736 C69.77762616 9.29520328 50.47940072 8.92233927 31.18789673 8.24090576 C28.99597066 8.16421854 26.80388606 8.09192491 24.61166382 8.02423096 C21.59195256 7.92880385 18.57352039 7.81504405 15.5546875 7.6953125 C14.24512337 7.65766785 14.24512337 7.65766785 12.90910339 7.6192627 C7.60228263 7.38030641 3.75720083 6.38700253 -1 4 C-0.67 2.68 -0.34 1.36 0 0 Z " fill="#F5FAF9" transform="translate(813,585)"/>
<path d="M0 0 C5.29461362 4.51599397 7.6138242 11.81190752 8.23632812 18.56298828 C9.59929847 43.71324172 9.59929847 43.71324172 2.57421875 52.85546875 C0.29505967 55.05217763 -1.45961169 55.97426722 -4.625 56.125 C-8.51347649 54.28309008 -10.44866184 51.1605328 -12.265625 47.3359375 C-16.77847684 33.7615657 -17.16192346 18.14677481 -11 5 C-8.29454754 0.59346037 -5.21143307 -1.10881555 0 0 Z " fill="#FBFDFC" transform="translate(364,686)"/>
<path d="M0 0 C3.66441016 2.93257236 6.15680027 6.62134779 8.80615234 10.45800781 C10.01091022 12.15140759 11.21665849 13.84410313 12.42333984 15.53613281 C13.0237207 16.38626953 13.62410156 17.23640625 14.24267578 18.11230469 C17.55350771 22.73712861 21.02884424 27.23956477 24.50048828 31.74438477 C28.05615234 36.42690393 28.05615234 36.42690393 28.05615234 38.64550781 C4.88226029 36.68161866 4.88226029 36.68161866 -2.94384766 28.64550781 C-6.75662285 23.61896158 -9.86079512 18.13751736 -12.94384766 12.64550781 C-13.31380859 11.99372559 -13.68376953 11.34194336 -14.06494141 10.67041016 C-19.94384766 0.26119291 -19.94384766 0.26119291 -19.94384766 -2.35449219 C-12.01984617 -3.93929248 -6.77766257 -4.44308202 0 0 Z " fill="#FAFDFC" transform="translate(790.94384765625,643.3544921875)"/>
<path d="M0 0 C5.66947938 -0.34016876 10.23795083 -0.51484582 15 3 C20.46355974 12.36610241 20.34088976 24.1458262 20.625 34.6875 C20.66367187 35.87794922 20.70234375 37.06839844 20.7421875 38.29492188 C20.83540995 41.19647053 20.92121348 44.09802966 21 47 C12.94804382 45.63066434 8.52265202 43.12991459 3 37 C-3.73647271 26.26374661 -1.10054824 12.00776744 0 0 Z " fill="#F9FCFB" transform="translate(918,424)"/>
<path d="M0 0 C13.59049196 13.59049196 12.10411074 36.98320642 12.5625 54.75 C12.60581478 56.33334171 12.64943256 57.91667515 12.69335938 59.5 C12.79905873 63.33324729 12.9006837 67.16658224 13 71 C8.71 71 4.42 71 0 71 C0 47.57 0 24.14 0 0 Z " fill="#08976A" transform="translate(999,542)"/>
<path d="M0 0 C1.18851563 0.10183594 2.37703125 0.20367188 3.6015625 0.30859375 C4.51679687 0.39238281 5.43203125 0.47617187 6.375 0.5625 C5.27152804 5.64559955 2.90311653 10.13544671 0.6875 14.8125 C0.26533203 15.72902344 -0.15683594 16.64554688 -0.59179688 17.58984375 C-4.24250311 25.30973838 -8.03105355 33.190503 -16.203125 36.75390625 C-22.09531155 38.72113628 -28.38654286 40.5625 -34.625 40.5625 C-33.32771769 37.05418731 -31.79956516 34.07719321 -29.71875 30.97265625 C-28.85685059 29.68149902 -28.85685059 29.68149902 -27.97753906 28.36425781 C-27.36620117 27.46030273 -26.75486328 26.55634766 -26.125 25.625 C-25.50077148 24.69655273 -24.87654297 23.76810547 -24.23339844 22.81152344 C-20.49807255 17.27650184 -16.73009332 11.76489087 -12.875 6.3125 C-12.46958984 5.73508057 -12.06417969 5.15766113 -11.64648438 4.56274414 C-7.95175472 -0.59408384 -6.2288747 -0.54960659 0 0 Z " fill="#F9FCFB" transform="translate(995.625,641.4375)"/>
<path d="M0 0 C0.66 0.33 1.32 0.66 2 1 C-0.18018186 5.48148494 -2.34829356 7.21849541 -7 9 C-7.66 8.67 -8.32 8.34 -9 8 C-6.03 5.36 -3.06 2.72 0 0 Z " fill="#25A37C" transform="translate(314,479)"/>
</svg>
